<svg width="546" height="28" viewBox="0 0 546 28" fill="none" xmlns="http://www.w3.org/2000/svg">
<path d="M35.9916 5.47775H34.1124H25.4171H23.522L22.2479 6.9077L18.1391 11.5312V11.5312L16.8651 12.9611H14.9859H6.44983H4.57062L5.81281 11.5153L6.40205 10.8321L7.64424 9.38626H5.76503H3.34436H1.99069C0.955532 9.38626 0.111481 10.2601 0.111481 11.3087V11.3087V15.0266V15.3761C0.111481 16.4407 0.955532 17.2986 1.99069 17.2986H2.51623H22.2638H23.6812C24.7164 17.2986 26.1337 16.6631 26.8185 15.8687L30.0992 12.1508L35.9916 5.47775Z" fill="#005498"/>
<path d="M38.4919 1.14027C39.5271 1.14027 40.3711 2.01412 40.3711 3.06275V7.11425C40.3711 8.17876 39.5271 9.03673 38.4919 9.03673H37.4727H34.7335H32.8543L34.1124 7.60679V7.60679L34.7335 6.89182L35.9916 5.46187H23.522L16.881 12.9294H4.50693L13.3774 2.91975L13.7119 2.53843C14.4126 1.75991 15.83 1.10849 16.8651 1.10849H17.2951H38.4919V1.14027Z" fill="#FFD800"/>
<path fill-rule="evenodd" clip-rule="evenodd" d="M4.17249 23.5109C4.29989 23.7016 4.36359 23.924 4.36359 24.1941V24.3212C4.36359 24.6549 4.29989 24.9409 4.17249 25.1633C4.02916 25.3857 3.8699 25.5605 3.64694 25.6876C3.42399 25.8147 3.16918 25.9101 2.88252 25.9577C2.59586 26.0054 2.27735 26.0372 1.94292 26.0372H1.54478C1.41738 26.0372 1.28997 26.0372 1.16257 26.0213C1.10114 26.0136 1.04341 26.0097 0.987603 26.0058C0.927663 26.0017 0.869935 25.9977 0.812207 25.9895C0.716654 25.9895 0.621101 25.9736 0.541474 25.9577C0.398144 25.926 0.286666 25.8783 0.222964 25.8147C0.159262 25.7353 0.127411 25.6241 0.127411 25.4493V20.794C0.127411 20.6193 0.159262 20.4922 0.222964 20.4286C0.286666 20.3492 0.398144 20.3174 0.541474 20.2856C0.577999 20.2765 0.619761 20.2726 0.66976 20.268C0.706962 20.2645 0.748723 20.2606 0.796282 20.2538C0.90776 20.238 1.01924 20.2221 1.14664 20.2221C1.21034 20.2221 1.27405 20.2181 1.33775 20.2141C1.40145 20.2101 1.46515 20.2062 1.52885 20.2062H1.91107C2.27735 20.2062 2.59586 20.238 2.89845 20.2856C3.20103 20.3492 3.45584 20.4286 3.66287 20.5557C3.8699 20.6828 4.04508 20.8417 4.15656 21.0483C4.26804 21.2548 4.33174 21.509 4.33174 21.8109V21.9539C4.33174 22.1922 4.26804 22.4146 4.15656 22.6212C4.04508 22.8119 3.88583 22.9707 3.6788 23.0661C3.88583 23.1614 4.04508 23.3203 4.17249 23.5109ZM29.1915 25.2269V25.8147C29.1915 25.8942 29.1437 25.9418 29.0481 25.9418L29.0481 25.9418C28.9366 25.9577 28.8251 25.9736 28.7455 25.9895C28.65 26.0054 28.5544 26.0054 28.443 26.0054C28.2359 26.0054 28.0448 25.9895 27.8856 25.9577C27.7263 25.926 27.5989 25.8624 27.4874 25.7671C27.3919 25.6717 27.3122 25.5446 27.2485 25.3699C27.2008 25.1951 27.1689 24.9727 27.1689 24.7026V22.4782L26.5478 22.3829C26.5 22.367 26.4682 22.3511 26.4363 22.3193C26.4045 22.3034 26.3886 22.2717 26.3886 22.224V21.7156C26.3886 21.6679 26.4045 21.6361 26.4363 21.6043C26.4682 21.5726 26.5 21.5567 26.5478 21.5567H27.1848V20.937C27.1848 20.9053 27.2008 20.8735 27.2326 20.8417C27.2645 20.8258 27.2963 20.8099 27.3441 20.794L28.2678 20.6352H28.2837C28.3156 20.6352 28.3474 20.651 28.3793 20.6669C28.3952 20.6828 28.4111 20.7146 28.4111 20.7623V21.5726H29.0322C29.08 21.5726 29.1118 21.5885 29.1437 21.6202C29.1755 21.652 29.1915 21.6838 29.1915 21.7315V22.3511C29.1915 22.3988 29.1755 22.4305 29.1437 22.4623C29.1118 22.4941 29.08 22.51 29.0322 22.51H28.4111V24.7343C28.4111 24.8932 28.4111 24.9885 28.443 25.0362C28.4589 25.0839 28.5385 25.0998 28.65 25.0998H29.0322C29.1437 25.0998 29.1915 25.1474 29.1915 25.2269ZM40.3711 25.8147V25.2269C40.3711 25.1474 40.3234 25.0998 40.2119 25.0998H39.8297C39.7182 25.0998 39.6386 25.0839 39.6226 25.0362C39.5908 24.9885 39.5908 24.8932 39.5908 24.7343V22.51H40.2119C40.2597 22.51 40.2915 22.4941 40.3234 22.4623C40.3552 22.4305 40.3711 22.3988 40.3711 22.3511V21.7315C40.3711 21.6838 40.3552 21.652 40.3234 21.6202C40.2915 21.5885 40.2597 21.5726 40.2119 21.5726H39.5908V20.7623C39.5908 20.7146 39.5749 20.6828 39.5589 20.6669C39.5271 20.651 39.4952 20.6352 39.4634 20.6352H39.4475L38.5238 20.794C38.476 20.8099 38.4442 20.8258 38.4123 20.8417C38.3805 20.8735 38.3645 20.9053 38.3645 20.937V21.5567H37.7434C37.6957 21.5567 37.6638 21.5726 37.632 21.6043C37.6001 21.6361 37.5842 21.6679 37.5842 21.7156V22.224C37.5842 22.2717 37.6001 22.3034 37.632 22.3193C37.6638 22.3511 37.6957 22.367 37.7434 22.3829L38.3645 22.4782V24.7026C38.3645 24.9727 38.3964 25.1951 38.4442 25.3699C38.5079 25.5446 38.5875 25.6717 38.683 25.7671C38.7945 25.8624 38.9219 25.926 39.0812 25.9577C39.2404 25.9895 39.4315 26.0054 39.6386 26.0054C39.7501 26.0054 39.8456 26.0054 39.9412 25.9895C40.0208 25.9736 40.1322 25.9577 40.2436 25.9419L40.2437 25.9418C40.3234 25.9418 40.3711 25.8942 40.3711 25.8147ZM37.0586 25.7353V25.0521C37.0586 25.0044 37.0427 24.9727 37.0109 24.9568C36.979 24.9409 36.9472 24.925 36.9153 24.925H36.8994C36.756 24.9409 36.6127 24.9568 36.4853 24.9568C36.3579 24.9727 36.1827 24.9727 35.9598 24.9727C35.8801 24.9727 35.7846 24.9568 35.7209 24.925C35.6413 24.8932 35.5776 24.8455 35.5139 24.782C35.4502 24.7184 35.4183 24.6231 35.3865 24.5119C35.3546 24.4007 35.3387 24.2577 35.3387 24.0829V23.4474C35.3387 23.2726 35.3546 23.1296 35.3865 23.0184C35.4183 22.9072 35.4661 22.8119 35.5139 22.7483C35.5776 22.6847 35.6413 22.6371 35.7209 22.6053C35.8005 22.5735 35.8801 22.5576 35.9598 22.5576C36.1827 22.5576 36.3579 22.5576 36.4853 22.5735C36.5508 22.5817 36.6205 22.5857 36.6922 22.5897C36.76 22.5936 36.8297 22.5976 36.8994 22.6053H36.9153C36.9631 22.6053 36.9949 22.5894 37.0109 22.5735C37.0427 22.5576 37.0586 22.5259 37.0586 22.4782V21.795C37.0586 21.7315 37.0427 21.6997 37.0268 21.6838C37.0171 21.679 37.0075 21.6727 36.997 21.6659C36.9727 21.6501 36.9438 21.6313 36.8994 21.6202C36.8211 21.5979 36.7349 21.5834 36.6298 21.5658C36.5853 21.5583 36.5374 21.5502 36.4853 21.5408C36.3101 21.509 36.119 21.509 35.8801 21.509C35.3387 21.509 34.9087 21.6679 34.5743 22.0016C34.2557 22.3352 34.0806 22.8119 34.0806 23.4474V24.0829C34.0806 24.7026 34.2398 25.1951 34.5743 25.5287C34.8928 25.8624 35.3387 26.0213 35.8801 26.0213C36.1031 26.0213 36.3101 26.0054 36.4853 25.9895C36.54 25.9796 36.5915 25.9712 36.6395 25.9634C36.7453 25.9463 36.8336 25.9319 36.8994 25.9101C36.9631 25.8942 36.9949 25.8783 37.0268 25.8465C37.0586 25.8306 37.0586 25.783 37.0586 25.7353ZM31.7714 25.0362C31.8828 25.0044 31.9784 24.9727 32.0739 24.925V24.0988H31.644C31.5006 24.0988 31.3892 24.1147 31.3095 24.1306C31.2299 24.1465 31.1503 24.1782 31.1025 24.2259C31.0547 24.2736 31.0069 24.3371 30.991 24.4007C30.9751 24.4642 30.9592 24.5437 30.9592 24.639V24.7026C30.9592 24.8773 30.991 24.9727 31.0706 25.0203C31.1503 25.068 31.2777 25.0839 31.4369 25.0839C31.5484 25.0839 31.6599 25.068 31.7714 25.0362ZM33.2843 23.0661C33.2843 22.7801 33.2365 22.5418 33.1569 22.3511C33.0773 22.1604 32.9499 22.0016 32.8065 21.8744C32.6473 21.7473 32.4721 21.652 32.2491 21.6043C32.0262 21.5408 31.7714 21.509 31.5006 21.509C31.2458 21.509 30.991 21.5249 30.7521 21.5567C30.5133 21.5885 30.3221 21.6202 30.1788 21.6679C30.0833 21.6997 30.0355 21.7473 30.0355 21.8427V22.4623C30.0355 22.51 30.0514 22.5418 30.0673 22.5735C30.0992 22.5894 30.131 22.6053 30.1629 22.6053H30.1947C30.2248 22.6053 30.2584 22.6018 30.2939 22.598C30.3336 22.5938 30.3757 22.5894 30.4177 22.5894C30.4636 22.5894 30.5096 22.5857 30.5573 22.5819C30.6088 22.5778 30.6624 22.5735 30.7203 22.5735C30.7742 22.5735 30.8318 22.5698 30.8913 22.566C30.9549 22.5619 31.0207 22.5576 31.0866 22.5576H31.4529C31.628 22.5576 31.7714 22.5894 31.8669 22.653C31.9625 22.7165 32.0262 22.8595 32.0262 23.082V23.3521H31.6121C30.9592 23.3521 30.4655 23.4474 30.1788 23.6539C29.8762 23.8605 29.7329 24.1941 29.7329 24.639V24.7026C29.7329 24.9568 29.7648 25.1633 29.8444 25.3222C29.924 25.497 30.0196 25.6241 30.147 25.7353C30.2744 25.8306 30.4018 25.9101 30.561 25.9577C30.7203 26.0054 30.8795 26.0213 31.0547 26.0213C31.2777 26.0213 31.4847 25.9895 31.644 25.926C31.8032 25.8624 31.9625 25.783 32.1217 25.6717V25.7988C32.1217 25.8465 32.1377 25.8783 32.1695 25.9101C32.2014 25.9418 32.2332 25.9577 32.281 25.9577H33.141C33.1887 25.9577 33.2206 25.9418 33.2524 25.9101C33.2843 25.8783 33.3002 25.8465 33.3002 25.7988V23.0661H33.2843ZM25.8471 25.7988V23.2567C25.8471 23.0184 25.8312 22.796 25.7834 22.5735C25.7515 22.367 25.6719 22.1763 25.5763 22.0174C25.4808 21.8586 25.3375 21.7315 25.1623 21.652C24.9871 21.5567 24.7641 21.509 24.4775 21.509C24.2386 21.509 24.0156 21.5408 23.8245 21.6043C23.6334 21.6679 23.4423 21.7632 23.2194 21.9221V21.7315C23.2194 21.6838 23.2034 21.652 23.1716 21.6202C23.1397 21.5885 23.1079 21.5726 23.0601 21.5726H22.2001C22.1524 21.5726 22.1205 21.5885 22.0887 21.6202C22.0568 21.652 22.0409 21.6838 22.0409 21.7315V25.7988C22.0409 25.8465 22.0568 25.8783 22.0887 25.9101C22.1205 25.9418 22.1524 25.9577 22.2001 25.9577H23.1238C23.1716 25.9577 23.2034 25.9418 23.2353 25.9101C23.2672 25.8783 23.2831 25.8465 23.2831 25.7988V22.796L23.2831 22.796C23.4105 22.7324 23.5379 22.6689 23.6653 22.6212C23.7768 22.5735 23.9042 22.5576 24.0157 22.5576C24.1271 22.5576 24.2227 22.5735 24.3023 22.5894C24.3819 22.6053 24.4297 22.653 24.4775 22.7006C24.5253 22.7642 24.5412 22.8277 24.5571 22.9231C24.573 23.0184 24.573 23.1296 24.573 23.2567V25.7988C24.573 25.8465 24.589 25.8783 24.6208 25.9101C24.6527 25.9418 24.6845 25.9577 24.7323 25.9577H25.656C25.7038 25.9577 25.7356 25.9418 25.7675 25.9101C25.8312 25.8783 25.8471 25.8306 25.8471 25.7988ZM19.3654 24.9727C19.8273 24.9727 20.0502 24.6549 20.0502 24.0352V23.495C20.0502 22.8754 19.8113 22.5576 19.3654 22.5576C19.1425 22.5576 18.9673 22.6371 18.8558 22.796C18.7443 22.9548 18.6806 23.1773 18.6806 23.495V24.0352C18.6806 24.3371 18.7443 24.5754 18.8558 24.7343C18.9673 24.8932 19.1425 24.9727 19.3654 24.9727ZM21.2924 23.495C21.2924 23.1932 21.2446 22.9072 21.165 22.6689C21.0854 22.4305 20.958 22.224 20.7987 22.0492C20.6395 21.8744 20.4324 21.7473 20.1935 21.652C19.9547 21.5567 19.6839 21.509 19.3654 21.509C19.0469 21.509 18.7762 21.5567 18.5373 21.652C18.2984 21.7473 18.0914 21.8744 17.9321 22.0492C17.7729 22.224 17.6455 22.4305 17.5658 22.6689C17.4862 22.9072 17.4384 23.1932 17.4384 23.495V24.0352C17.4384 24.3371 17.4862 24.6231 17.5658 24.8614C17.6455 25.0998 17.7729 25.3063 17.9321 25.4811C18.0914 25.6558 18.2984 25.783 18.5373 25.8783C18.7762 25.9736 19.0469 26.0213 19.3654 26.0213C19.6839 26.0213 19.9547 25.9736 20.1935 25.8783C20.4324 25.783 20.6395 25.6558 20.7987 25.4811C20.958 25.3063 21.0854 25.0998 21.165 24.8614C21.2446 24.6231 21.2924 24.3371 21.2924 24.0352V23.495ZM17.0403 25.0521V25.7353C17.0403 25.783 17.0244 25.8306 17.0084 25.8465C16.9766 25.8783 16.9447 25.8942 16.881 25.9101C16.8027 25.9324 16.7165 25.9469 16.6115 25.9645C16.567 25.972 16.5191 25.9801 16.467 25.9895C16.2918 26.0054 16.0848 26.0213 15.8618 26.0213C15.3203 26.0213 14.8744 25.8624 14.5559 25.5287C14.2215 25.1951 14.0622 24.7026 14.0622 24.0829V23.4474C14.0622 22.8119 14.2374 22.3352 14.5559 22.0016C14.8904 21.6679 15.3203 21.509 15.8618 21.509C16.1007 21.509 16.2918 21.509 16.467 21.5408C16.5191 21.5502 16.567 21.5583 16.6115 21.5658C16.7165 21.5834 16.8027 21.5979 16.881 21.6202C16.9255 21.6313 16.9544 21.6501 16.9786 21.6659C16.9892 21.6727 16.9988 21.679 17.0084 21.6838C17.0244 21.6997 17.0403 21.7315 17.0403 21.795V22.4782C17.0403 22.5259 17.0244 22.5576 16.9925 22.5735C16.9607 22.5894 16.9288 22.6053 16.881 22.6053H16.8651C16.7954 22.5976 16.7258 22.5936 16.6579 22.5897C16.5862 22.5857 16.5165 22.5817 16.4511 22.5735C16.3237 22.5576 16.1485 22.5576 15.9255 22.5576C15.8459 22.5576 15.7663 22.5735 15.6866 22.6053C15.607 22.6371 15.5433 22.6847 15.4796 22.7483C15.4318 22.8119 15.384 22.9072 15.3522 23.0184C15.3203 23.1296 15.3044 23.2726 15.3044 23.4474V24.0829C15.3044 24.2577 15.3203 24.4007 15.3522 24.5119C15.384 24.6231 15.4159 24.7184 15.4796 24.782C15.5433 24.8455 15.607 24.8932 15.6866 24.925C15.7503 24.9568 15.8459 24.9727 15.9255 24.9727C16.1485 24.9727 16.3237 24.9727 16.4511 24.9568C16.5785 24.9568 16.7218 24.9409 16.8651 24.925H16.881C16.9288 24.925 16.9607 24.9409 16.9925 24.9568C17.0244 24.9727 17.0403 25.0044 17.0403 25.0521ZM13.2659 25.7988V23.2567C13.2659 23.0184 13.25 22.796 13.2022 22.5735C13.1704 22.367 13.0908 22.1763 12.9952 22.0174C12.8997 21.8586 12.7563 21.7315 12.5811 21.652C12.406 21.5567 12.183 21.509 11.8964 21.509C11.6575 21.509 11.4345 21.5408 11.2434 21.6043C11.0523 21.6679 10.8612 21.7632 10.6382 21.9221V21.7315C10.6382 21.6838 10.6223 21.652 10.5905 21.6202C10.5586 21.5885 10.5268 21.5726 10.479 21.5726H9.61901C9.57123 21.5726 9.53938 21.5885 9.50753 21.6202C9.47568 21.652 9.45975 21.6838 9.45975 21.7315V25.7988C9.45975 25.8465 9.47568 25.8783 9.50753 25.9101C9.53938 25.9418 9.57123 25.9577 9.61901 25.9577H10.5427C10.5905 25.9577 10.6223 25.9418 10.6542 25.9101C10.686 25.8783 10.7019 25.8465 10.7019 25.7988V22.796L10.702 22.796C10.8294 22.7324 10.9568 22.6689 11.0842 22.6212C11.1956 22.5735 11.323 22.5576 11.4345 22.5576C11.546 22.5576 11.6415 22.5735 11.7212 22.5894C11.8008 22.6053 11.8486 22.653 11.8964 22.7006C11.9441 22.7642 11.9601 22.8277 11.976 22.9231C11.9919 23.0184 11.9919 23.1296 11.9919 23.2567V25.7988C11.9919 25.8465 12.0078 25.8783 12.0397 25.9101C12.0715 25.9418 12.1034 25.9577 12.1512 25.9577H13.0748C13.1226 25.9577 13.1545 25.9418 13.1863 25.9101C13.25 25.8783 13.2659 25.8306 13.2659 25.7988ZM7.03908 25.0362C7.15056 25.0044 7.24611 24.9727 7.34167 24.925V24.0988H6.91168C6.76835 24.0988 6.65687 24.1147 6.57724 24.1306C6.49762 24.1465 6.41799 24.1782 6.37021 24.2259C6.32244 24.2736 6.27466 24.3371 6.25873 24.4007C6.24281 24.4642 6.22688 24.5437 6.22688 24.639V24.7026C6.22688 24.8773 6.25873 24.9727 6.33836 25.0203C6.41799 25.068 6.54539 25.0839 6.70465 25.0839C6.81613 25.0839 6.9276 25.068 7.03908 25.0362ZM8.56792 23.0661C8.56792 22.7801 8.52015 22.5418 8.44052 22.3511C8.36089 22.1604 8.23349 22.0016 8.09016 21.8744C7.93091 21.7473 7.75572 21.652 7.53277 21.6043C7.30981 21.5408 7.055 21.509 6.78427 21.509C6.52946 21.509 6.27465 21.5249 6.03577 21.5567C5.79689 21.5885 5.60578 21.6202 5.46245 21.6679C5.3669 21.6997 5.31912 21.7473 5.31912 21.8427V22.4623C5.31912 22.51 5.33505 22.5418 5.35098 22.5735C5.38283 22.5894 5.41468 22.6053 5.44653 22.6053H5.47838C5.50845 22.6053 5.54208 22.6018 5.57758 22.598L5.57758 22.598C5.61727 22.5938 5.6593 22.5894 5.70134 22.5894C5.74568 22.5894 5.79003 22.586 5.83755 22.5823L5.83756 22.5823C5.89244 22.5781 5.95157 22.5735 6.01985 22.5735C6.07372 22.5735 6.13132 22.5698 6.19084 22.566L6.19085 22.566L6.19086 22.566C6.25449 22.5619 6.32031 22.5576 6.38613 22.5576H6.75242C6.9276 22.5576 7.07093 22.5894 7.16648 22.653C7.26203 22.7165 7.32574 22.8595 7.32574 23.082V23.3521H6.91167C6.25873 23.3521 5.76504 23.4474 5.47838 23.6539C5.17579 23.8605 5.03247 24.1941 5.03247 24.639V24.7026C5.03247 24.9568 5.06432 25.1633 5.14394 25.3222C5.22357 25.497 5.31912 25.6241 5.44653 25.7353C5.57393 25.8306 5.70134 25.9101 5.86059 25.9577C6.01985 26.0054 6.1791 26.0213 6.35428 26.0213C6.57724 26.0213 6.78427 25.9895 6.94352 25.926C7.10278 25.8624 7.26203 25.783 7.42129 25.6717V25.7988C7.42129 25.8465 7.43721 25.8783 7.46907 25.9101C7.50092 25.9418 7.53277 25.9577 7.58054 25.9577H8.44052C8.4883 25.9577 8.52015 25.9418 8.552 25.9101C8.58385 25.8783 8.59978 25.8465 8.59978 25.7988V23.0661H8.56792ZM2.86659 24.7661C3.00992 24.6549 3.08955 24.4801 3.08955 24.2736V24.1941C3.08955 24.0194 3.02585 23.8605 2.91437 23.7175C2.80289 23.5745 2.57993 23.5109 2.27735 23.5109H1.41737V24.9409H1.54478H1.73588H1.92699H2.05439C2.43661 24.9409 2.72326 24.8773 2.86659 24.7661ZM3.0577 22.0016C3.0577 22.081 3.04177 22.1604 3.02585 22.2399C2.994 22.3193 2.96215 22.3829 2.89844 22.4305C2.83474 22.4782 2.75512 22.5259 2.65956 22.5576C2.56401 22.5894 2.43661 22.6053 2.27735 22.6053H1.41737V21.2866H1.52885H1.70403H1.87921H2.00662C2.40475 21.2866 2.67549 21.3342 2.83474 21.4296C2.994 21.5249 3.07363 21.6838 3.07363 21.8903L3.0577 22.0016Z" fill="#005498"/>
<rect x="143.937" y="4.18179" width="10.3312" height="18.661" fill="#FF5F00"/>
<path d="M144.593 13.5172C144.59 9.87635 146.253 6.43634 149.103 4.18839C144.262 0.364565 137.31 0.921538 133.133 5.46788C128.956 10.0142 128.956 17.0235 133.133 21.5699C137.31 26.1162 144.262 26.6732 149.103 22.8494C146.252 20.6007 144.589 17.1593 144.593 13.5172Z" fill="#EB001B"/>
<path d="M168.207 13.5172C168.207 18.0608 165.626 22.2055 161.56 24.191C157.494 26.1765 152.657 25.6543 149.103 22.8461C151.951 20.5962 153.614 17.1567 153.614 13.5156C153.614 9.8745 151.951 6.43495 149.103 4.18509C152.657 1.37655 157.495 0.854575 161.561 2.84091C165.628 4.82725 168.208 8.97307 168.207 13.5172Z" fill="#F79E1B"/>
<path fill-rule="evenodd" clip-rule="evenodd" d="M167.83 20.4034V20.866L167.745 20.8693V20.5191L167.617 20.8198H167.528L167.4 20.5191V20.866H167.332V20.4034H167.453L167.591 20.7339L167.728 20.4034H167.83ZM167.072 20.4819V20.8652L166.997 20.8685V20.4852H166.843V20.4059H167.227V20.4819H167.072Z" fill="#F79E1B"/>
<path fill-rule="evenodd" clip-rule="evenodd" d="M86.0742 10.1606C86.0995 6.77007 89.2579 4.40143 93.7483 4.40143C95.4988 4.40143 96.905 4.78001 97.9989 5.17534L97.2004 8.86902C95.1663 7.93932 93.3718 8.00465 92.7219 8.09008C91.4086 8.25927 90.8093 8.9243 90.7941 9.54745C90.7502 11.6028 97.1785 11.8575 97.1599 16.4557C97.143 20.079 94.0217 22.4159 89.2512 22.4159C87.2187 22.3974 85.2588 21.9753 84.2004 21.4912L85.0225 17.6735C86.0775 18.1627 87.4044 18.8093 89.6867 18.7741C90.995 18.754 92.3927 18.2381 92.4062 17.0688C92.413 16.305 91.8188 15.7572 90.0496 14.9029C88.3278 14.0703 86.0421 12.6699 86.0742 10.1606ZM105.671 4.7197H109.551L113.217 22.1445H109.015L108.465 19.543H102.639L101.691 22.1445H96.9236L103.738 5.99783C104.066 5.22392 104.8 4.7197 105.671 4.7197V4.7197ZM106.338 9.42684L103.946 15.9699H107.714L106.338 9.42684V9.42684ZM80.2941 4.7197H84.8351L81.0791 22.1445H76.5364L80.2941 4.7197ZM73.5738 4.7197H78.3443L70.9842 22.1445H66.1833L62.5606 8.23917C62.3412 7.38317 62.1504 7.06825 61.4819 6.70809C60.3897 6.11844 58.5868 5.56732 57 5.2256L57.108 4.7197H64.8379C65.822 4.7197 66.7083 5.36966 66.9328 6.49535L68.8454 16.5797L73.5738 4.7197V4.7197Z" fill="url(#paint0_linear)"/>
<mask id="mask0" mask-type="alpha" maskUnits="userSpaceOnUse" x="57" y="4" width="57" height="19">
<path fill-rule="evenodd" clip-rule="evenodd" d="M86.0742 10.1606C86.0995 6.77007 89.2579 4.40143 93.7483 4.40143C95.4988 4.40143 96.905 4.78001 97.9989 5.17534L97.2004 8.86902C95.1663 7.93932 93.3718 8.00465 92.7219 8.09008C91.4086 8.25927 90.8093 8.9243 90.7941 9.54745C90.7502 11.6028 97.1785 11.8575 97.1599 16.4557C97.143 20.079 94.0217 22.4159 89.2512 22.4159C87.2187 22.3974 85.2588 21.9753 84.2004 21.4912L85.0225 17.6735C86.0775 18.1627 87.4044 18.8093 89.6867 18.7741C90.995 18.754 92.3927 18.2381 92.4062 17.0688C92.413 16.305 91.8188 15.7572 90.0496 14.9029C88.3278 14.0703 86.0421 12.6699 86.0742 10.1606ZM105.671 4.7197H109.551L113.217 22.1445H109.015L108.465 19.543H102.639L101.691 22.1445H96.9236L103.738 5.99783C104.066 5.22392 104.8 4.7197 105.671 4.7197V4.7197ZM106.338 9.42684L103.946 15.9699H107.714L106.338 9.42684V9.42684ZM80.2941 4.7197H84.8351L81.0791 22.1445H76.5364L80.2941 4.7197ZM73.5738 4.7197H78.3443L70.9842 22.1445H66.1833L62.5606 8.23917C62.3412 7.38317 62.1504 7.06825 61.4819 6.70809C60.3897 6.11844 58.5868 5.56732 57 5.2256L57.108 4.7197H64.8379C65.822 4.7197 66.7083 5.36966 66.9328 6.49535L68.8454 16.5797L73.5738 4.7197V4.7197Z" fill="white"/>
</mask>
<g mask="url(#mask0)">
</g>
<path fill-rule="evenodd" clip-rule="evenodd" d="M348.14 20.0479H351.463V8.64737H348.14V20.0479Z" fill="#FF4785"/>
<mask id="mask1" mask-type="alpha" maskUnits="userSpaceOnUse" x="347" y="3" width="5" height="5">
<path fill-rule="evenodd" clip-rule="evenodd" d="M347.86 3.58234H351.733V7.42285H347.86L347.86 3.58234L347.86 3.58234Z" fill="white"/>
</mask>
<g mask="url(#mask1)">
<path fill-rule="evenodd" clip-rule="evenodd" d="M349.795 7.42304C348.725 7.42187 347.858 6.56151 347.86 5.50103C347.86 4.43998 348.728 3.58136 349.799 3.58194C350.868 3.5831 351.735 4.44347 351.734 5.50452C351.733 6.565 350.865 7.4242 349.795 7.42304" fill="#FF4785"/>
</g>
<path fill-rule="evenodd" clip-rule="evenodd" d="M322.174 14.3376C322.174 12.1916 323.366 10.2388 325.286 9.24231C326.098 8.82172 327.104 9.13062 327.529 9.93746C327.956 10.7431 327.642 11.739 326.829 12.1614C326.008 12.5872 325.498 13.4214 325.498 14.3376C325.498 15.6907 326.609 16.7913 327.974 16.7913C328.951 16.7913 329.84 16.2195 330.237 15.3347C330.612 14.5034 331.596 14.1299 332.432 14.5005C333.271 14.871 333.648 15.8448 333.274 16.6755C332.342 18.747 330.261 20.0861 327.974 20.0861C324.777 20.0861 322.174 17.5074 322.174 14.3376Z" fill="#FF4785"/>
<path fill-rule="evenodd" clip-rule="evenodd" d="M361.231 22.6604H364.555V8.6683H361.231V22.6604Z" fill="#FF4785"/>
<path fill-rule="evenodd" clip-rule="evenodd" d="M273.165 22.6604H276.489V8.6683H273.165V22.6604Z" fill="#FF4785"/>
<path fill-rule="evenodd" clip-rule="evenodd" d="M335.214 20.0479H338.538V8.66888H335.214V20.0479Z" fill="#FF4785"/>
<path fill-rule="evenodd" clip-rule="evenodd" d="M294.088 20.0479H297.412V8.66888H294.088V20.0479Z" fill="#FF4785"/>
<path fill-rule="evenodd" clip-rule="evenodd" d="M316.371 20.0861C313.173 20.0861 310.571 17.5074 310.571 14.3376C310.571 11.1678 313.173 8.58844 316.371 8.58844C318.326 8.58844 320.136 9.557 321.215 11.1788L318.439 12.9915C317.977 12.2975 317.204 11.8833 316.371 11.8833C315.005 11.8833 313.895 12.9845 313.895 14.3376C313.895 15.6907 315.005 16.7913 316.371 16.7913C317.197 16.7913 317.967 16.3841 318.429 15.7011L321.189 17.5359C320.109 19.1333 318.308 20.0861 316.371 20.0861" fill="#FF4785"/>
<path fill-rule="evenodd" clip-rule="evenodd" d="M237.637 11.6208C238.198 11.2595 238.828 11.0868 239.452 11.0868C240.551 11.0868 241.628 11.6208 242.269 12.6016C242.755 13.3438 242.921 14.231 242.733 15.0983C242.57 15.8563 242.157 16.5183 241.554 16.9959L246.827 13.2391C246.665 12.2333 246.294 11.2636 245.718 10.384C244.635 8.72614 242.964 7.58597 241.016 7.17353C239.065 6.76167 237.071 7.12525 235.399 8.20143L237.637 11.6196V11.6208Z" fill="#FF4785"/>
<path fill-rule="evenodd" clip-rule="evenodd" d="M257.261 17.653C256.387 17.4681 255.637 16.9556 255.15 16.2115C254.146 14.6758 254.589 12.6165 256.139 11.62L250.595 15.5699C250.753 16.56 251.115 17.5338 251.7 18.4279C253.127 20.6105 255.526 21.799 257.972 21.799C259.363 21.799 260.768 21.4144 262.018 20.6123L259.782 17.1912C259.031 17.6751 258.138 17.8374 257.261 17.653" fill="#FF4785"/>
<path fill-rule="evenodd" clip-rule="evenodd" d="M264.22 10.3841C263.407 9.14095 262.265 8.18868 260.922 7.61626C260.475 7.42488 260.005 7.27654 259.518 7.17358C257.569 6.76288 255.574 7.12646 253.821 8.25616L253.388 8.56447L246.827 13.2386L241.554 16.9959C241.467 17.0651 241.375 17.1309 241.28 17.192C241.107 17.3031 240.927 17.3932 240.743 17.4689C239.404 18.0221 237.834 17.6509 236.892 16.5358C236.806 16.4334 236.723 16.3264 236.648 16.2118L233.198 18.4281C234.282 20.086 235.952 21.2262 237.901 21.6386C238.031 21.666 238.161 21.6898 238.291 21.7102C238.418 21.7305 238.545 21.7468 238.673 21.7602C238.675 21.7608 238.677 21.7608 238.68 21.7614C238.94 21.7887 239.2 21.8027 239.46 21.8027C240.892 21.8027 242.308 21.3862 243.595 20.5584C243.598 20.556 243.601 20.5531 243.605 20.5508L244.028 20.2495L250.595 15.5701L256.138 11.6197C256.223 11.5656 256.309 11.5173 256.397 11.4713C256.422 11.4579 256.448 11.4451 256.473 11.4329C256.542 11.3992 256.611 11.3678 256.681 11.3387C256.703 11.3294 256.726 11.3195 256.748 11.3113C256.841 11.2753 256.935 11.2427 257.03 11.2154C257.039 11.213 257.047 11.2113 257.056 11.209C257.144 11.1845 257.232 11.1642 257.321 11.1467C257.343 11.1426 257.365 11.1392 257.387 11.1351C257.475 11.12 257.563 11.1083 257.652 11.1002C257.662 11.099 257.673 11.0973 257.684 11.0967C257.773 11.0891 257.863 11.0851 257.953 11.0851C257.962 11.0851 257.972 11.0862 257.982 11.0862C258.047 11.0868 258.111 11.092 258.177 11.0967C258.224 11.0996 258.272 11.1008 258.32 11.106C258.433 11.1176 258.546 11.1351 258.659 11.1589C258.768 11.1822 258.875 11.2101 258.981 11.2433C259.08 11.2747 259.177 11.3113 259.272 11.3509C259.302 11.3637 259.331 11.3788 259.361 11.3928C259.425 11.4219 259.489 11.4515 259.55 11.4847C259.584 11.5027 259.617 11.5225 259.651 11.5417C259.706 11.5743 259.762 11.6074 259.816 11.6429C259.849 11.665 259.881 11.6877 259.914 11.7104C259.966 11.7482 260.017 11.7866 260.067 11.8268C260.097 11.8512 260.127 11.8756 260.156 11.9006C260.207 11.9448 260.257 11.9914 260.305 12.0385C260.33 12.0629 260.356 12.0868 260.38 12.1118C260.434 12.1688 260.486 12.2287 260.537 12.2892C260.552 12.3078 260.569 12.3253 260.583 12.3433C260.649 12.4259 260.712 12.5109 260.77 12.6004L264.22 10.3847V10.3841" fill="#C40041"/>
<path fill-rule="evenodd" clip-rule="evenodd" d="M279.015 11.8832C277.65 11.8832 276.539 12.9844 276.539 14.3375C276.539 15.6906 277.65 16.7912 279.015 16.7912C280.38 16.7912 281.491 15.6906 281.491 14.3375C281.491 12.9844 280.38 11.8832 279.015 11.8832M279.015 20.0861C275.817 20.0861 273.216 17.5073 273.216 14.3375C273.216 11.1677 275.817 8.58838 279.015 8.58838C282.213 8.58838 284.815 11.1677 284.815 14.3375C284.815 17.5073 282.213 20.0861 279.015 20.0861" fill="#FF4785"/>
<path fill-rule="evenodd" clip-rule="evenodd" d="M291.63 11.8832C290.265 11.8832 289.154 12.9844 289.154 14.3375C289.154 15.6906 290.265 16.7912 291.63 16.7912C292.995 16.7912 294.106 15.6906 294.106 14.3375C294.106 12.9844 292.995 11.8832 291.63 11.8832M291.63 20.0861C288.432 20.0861 285.83 17.5073 285.83 14.3375C285.83 11.1677 288.432 8.58838 291.63 8.58838C294.828 8.58838 297.429 11.1677 297.429 14.3375C297.429 17.5073 294.828 20.0861 291.63 20.0861" fill="#FF4785"/>
<path fill-rule="evenodd" clip-rule="evenodd" d="M358.73 11.8832C357.365 11.8832 356.254 12.9844 356.254 14.3375C356.254 15.6906 357.365 16.7912 358.73 16.7912C360.095 16.7912 361.206 15.6906 361.206 14.3375C361.206 12.9844 360.095 11.8832 358.73 11.8832M358.73 20.0861C355.532 20.0861 352.93 17.5073 352.93 14.3375C352.93 11.1677 355.532 8.58838 358.73 8.58838C361.928 8.58838 364.529 11.1677 364.529 14.3375C364.529 17.5073 361.928 20.0861 358.73 20.0861" fill="#FF4785"/>
<path fill-rule="evenodd" clip-rule="evenodd" d="M329.505 19.7973C328.844 19.7973 328.22 19.404 327.96 18.7589C327.621 17.9142 328.037 16.9556 328.889 16.6187C329.837 16.2447 330.45 15.3494 330.45 14.3372C330.45 12.9842 329.339 11.883 327.974 11.883C326.945 11.883 326.013 12.524 325.655 13.478C325.332 14.3308 324.375 14.7619 323.516 14.4454C322.656 14.1272 322.219 13.1785 322.54 12.3257C323.382 10.0901 325.566 8.58868 327.974 8.58868C331.172 8.58868 333.773 11.1674 333.773 14.3372C333.773 16.706 332.339 18.8031 330.12 19.6798C329.918 19.7589 329.709 19.7973 329.505 19.7973" fill="#FF4785"/>
<path fill-rule="evenodd" clip-rule="evenodd" d="M345.99 19.9731H342.666V14.1338C342.666 13.4101 342.46 12.8551 342.052 12.484C341.694 12.1577 341.191 11.9785 340.635 11.9785C340.418 11.9785 338.52 12.0372 338.52 14.0628H335.197C335.197 10.569 337.999 8.68362 340.635 8.68362C343.296 8.68362 345.99 10.5562 345.99 14.1338V19.9731Z" fill="#FF4785"/>
<path fill-rule="evenodd" clip-rule="evenodd" d="M304.995 22.6775L298.618 8.69351H302.215L306.542 18.7811L304.995 22.6775Z" fill="#FF4785"/>
<path fill-rule="evenodd" clip-rule="evenodd" d="M304.985 22.6971H301.612L307.192 8.69391H310.564L304.985 22.6971Z" fill="#FF4785"/>
<path fill-rule="evenodd" clip-rule="evenodd" d="M237.637 11.6197L235.399 8.2009C231.948 10.4196 230.961 15.007 233.198 18.4275L236.648 16.2118C236.459 15.9238 236.322 15.6172 236.233 15.3031C236.145 14.9884 236.105 14.6661 236.111 14.3468C236.132 13.2811 236.668 12.2427 237.637 11.6197" fill="#D62560"/>
<path fill-rule="evenodd" clip-rule="evenodd" d="M260.771 12.6013C261.257 13.3448 261.423 14.2313 261.235 15.0981C261.049 15.966 260.533 16.7089 259.782 17.1911L262.019 20.6122C263.691 19.5366 264.841 17.8816 265.257 15.9491C265.315 15.6757 265.357 15.4012 265.384 15.1272C265.404 14.9352 265.416 14.7432 265.42 14.5524C265.421 14.5338 265.422 14.5158 265.423 14.4972C265.444 13.0493 265.034 11.627 264.221 10.3844L260.771 12.6002" fill="#D62560"/>
<path fill-rule="evenodd" clip-rule="evenodd" d="M237.637 11.6208C238.198 11.2595 238.828 11.0868 239.452 11.0868C240.551 11.0868 241.628 11.6208 242.269 12.6016C242.755 13.3438 242.921 14.231 242.733 15.0983C242.57 15.8563 242.157 16.5183 241.554 16.9959L246.827 13.2391C246.665 12.2333 246.294 11.2636 245.718 10.384C244.635 8.72614 242.964 7.58597 241.016 7.17353C239.065 6.76167 237.071 7.12525 235.399 8.20143L237.637 11.6196V11.6208Z" fill="#FF4785"/>
<path fill-rule="evenodd" clip-rule="evenodd" d="M257.261 17.653C256.387 17.4681 255.637 16.9556 255.15 16.2115C254.146 14.6758 254.589 12.6165 256.139 11.62L250.595 15.5699C250.753 16.56 251.115 17.5338 251.7 18.4279C253.127 20.6105 255.526 21.799 257.972 21.799C259.363 21.799 260.768 21.4144 262.018 20.6123L259.782 17.1912C259.031 17.6751 258.138 17.8374 257.261 17.653" fill="#FF4785"/>
<path fill-rule="evenodd" clip-rule="evenodd" d="M264.22 10.3841C263.407 9.14095 262.265 8.18868 260.922 7.61626C260.475 7.42488 260.005 7.27654 259.518 7.17358C257.569 6.76288 255.574 7.12646 253.821 8.25616L253.388 8.56447L246.827 13.2386L241.554 16.9959C241.467 17.0651 241.375 17.1309 241.28 17.192C241.107 17.3031 240.927 17.3932 240.743 17.4689C239.404 18.0221 237.834 17.6509 236.892 16.5358C236.806 16.4334 236.723 16.3264 236.648 16.2118L233.198 18.4281C234.282 20.086 235.952 21.2262 237.901 21.6386C238.031 21.666 238.161 21.6898 238.291 21.7102C238.418 21.7305 238.545 21.7468 238.673 21.7602C238.675 21.7608 238.677 21.7608 238.68 21.7614C238.94 21.7887 239.2 21.8027 239.46 21.8027C240.892 21.8027 242.308 21.3862 243.595 20.5584C243.598 20.556 243.601 20.5531 243.605 20.5508L244.028 20.2495L250.595 15.5701L256.138 11.6197C256.223 11.5656 256.309 11.5173 256.397 11.4713C256.422 11.4579 256.448 11.4451 256.473 11.4329C256.542 11.3992 256.611 11.3678 256.681 11.3387C256.703 11.3294 256.726 11.3195 256.748 11.3113C256.841 11.2753 256.935 11.2427 257.03 11.2154C257.039 11.213 257.047 11.2113 257.056 11.209C257.144 11.1845 257.232 11.1642 257.321 11.1467C257.343 11.1426 257.365 11.1392 257.387 11.1351C257.475 11.12 257.563 11.1083 257.652 11.1002C257.662 11.099 257.673 11.0973 257.684 11.0967C257.773 11.0891 257.863 11.0851 257.953 11.0851C257.962 11.0851 257.972 11.0862 257.982 11.0862C258.047 11.0868 258.111 11.092 258.177 11.0967C258.224 11.0996 258.272 11.1008 258.32 11.106C258.433 11.1176 258.546 11.1351 258.659 11.1589C258.768 11.1822 258.875 11.2101 258.981 11.2433C259.08 11.2747 259.177 11.3113 259.272 11.3509C259.302 11.3637 259.331 11.3788 259.361 11.3928C259.425 11.4219 259.489 11.4515 259.55 11.4847C259.584 11.5027 259.617 11.5225 259.651 11.5417C259.706 11.5743 259.762 11.6074 259.816 11.6429C259.849 11.665 259.881 11.6877 259.914 11.7104C259.966 11.7482 260.017 11.7866 260.067 11.8268C260.097 11.8512 260.127 11.8756 260.156 11.9006C260.207 11.9448 260.257 11.9914 260.305 12.0385C260.33 12.0629 260.356 12.0868 260.38 12.1118C260.434 12.1688 260.486 12.2287 260.537 12.2892C260.552 12.3078 260.569 12.3253 260.583 12.3433C260.649 12.4259 260.712 12.5109 260.77 12.6004L264.22 10.3847V10.3841" fill="#C40041"/>
<path fill-rule="evenodd" clip-rule="evenodd" d="M237.637 11.6197L235.399 8.2009C231.948 10.4196 230.961 15.007 233.198 18.4275L236.648 16.2118C236.459 15.9238 236.322 15.6172 236.233 15.3031C236.145 14.9884 236.105 14.6661 236.111 14.3468C236.132 13.2811 236.668 12.2427 237.637 11.6197" fill="#D62560"/>
<path fill-rule="evenodd" clip-rule="evenodd" d="M260.771 12.6013C261.257 13.3448 261.423 14.2313 261.235 15.0981C261.049 15.966 260.533 16.7089 259.782 17.1911L262.019 20.6122C263.691 19.5366 264.841 17.8816 265.257 15.9491C265.315 15.6757 265.357 15.4012 265.384 15.1272C265.404 14.9352 265.416 14.7432 265.42 14.5524C265.421 14.5338 265.422 14.5158 265.423 14.4972C265.444 13.0493 265.034 11.627 264.221 10.3844L260.771 12.6002" fill="#D62560"/>
<path d="M386.24 24.7466L386.617 22.3669L385.777 22.3475H381.765L384.553 4.78759C384.562 4.73458 384.59 4.68516 384.631 4.65005C384.672 4.61495 384.725 4.59561 384.779 4.59561H391.543C393.789 4.59561 395.339 5.05981 396.148 5.97602C396.527 6.40583 396.769 6.85498 396.885 7.34927C397.008 7.86791 397.01 8.48755 396.89 9.2433L396.882 9.29846V9.78271L397.261 9.99619C397.581 10.1645 397.834 10.3572 398.029 10.5779C398.354 10.9454 398.563 11.4124 398.652 11.9662C398.744 12.5357 398.713 13.2133 398.563 13.9805C398.39 14.8631 398.111 15.6317 397.733 16.2607C397.385 16.8402 396.942 17.3209 396.417 17.6934C395.915 18.0473 395.318 18.3159 394.644 18.4878C393.991 18.6569 393.246 18.7421 392.429 18.7421H391.903C391.526 18.7421 391.16 18.8768 390.873 19.1182C390.586 19.3646 390.395 19.7013 390.337 20.0695L390.297 20.2837L389.631 24.4779L389.601 24.632C389.593 24.6807 389.579 24.705 389.559 24.7215C389.541 24.7366 389.515 24.7466 389.49 24.7466H386.24Z" fill="#253B80"/>
<path d="M397.62 9.35434V9.35434V9.35434C397.6 9.48257 397.577 9.61366 397.551 9.74833C396.659 14.2979 393.607 15.8696 389.71 15.8696H387.725C387.248 15.8696 386.847 16.2134 386.773 16.6805V16.6805V16.6805L385.756 23.0818L385.469 24.8963C385.42 25.2029 385.658 25.4794 385.97 25.4794H389.49C389.906 25.4794 390.261 25.1785 390.326 24.7702L390.361 24.5926L391.023 20.4148L391.066 20.1856C391.131 19.7758 391.486 19.475 391.903 19.475H392.429C395.839 19.475 398.509 18.0996 399.289 14.1195C399.615 12.4569 399.446 11.0686 398.584 10.0922C398.323 9.79776 397.999 9.55349 397.62 9.35434Z" fill="#179BD7"/>
<path d="M396.687 8.98469C396.551 8.94529 396.41 8.90947 396.266 8.87723C396.121 8.84571 395.973 8.81778 395.82 8.79342C395.285 8.70746 394.698 8.66663 394.07 8.66663H388.769C388.638 8.66663 388.514 8.696 388.403 8.74901C388.159 8.86577 387.977 9.09572 387.933 9.37725L386.805 16.4734L386.773 16.6805C386.847 16.2134 387.248 15.8695 387.725 15.8695H389.71C393.607 15.8695 396.659 14.2971 397.551 9.74832C397.578 9.61364 397.6 9.48255 397.62 9.35432C397.395 9.23541 397.15 9.13369 396.887 9.04701C396.822 9.02552 396.755 9.00474 396.687 8.98469Z" fill="#222D65"/>
<path d="M387.933 9.37725C387.977 9.09572 388.159 8.86578 388.403 8.74973C388.515 8.69672 388.638 8.66735 388.769 8.66735H394.07C394.698 8.66735 395.285 8.70818 395.82 8.79414C395.973 8.8185 396.121 8.84643 396.266 8.87795C396.41 8.91019 396.551 8.94601 396.687 8.98541C396.755 9.00546 396.822 9.02624 396.888 9.04701C397.151 9.13369 397.395 9.23613 397.621 9.35433C397.886 7.67305 397.619 6.52832 396.704 5.49176C395.695 4.35061 393.874 3.86206 391.544 3.86206H384.78C384.304 3.86206 383.898 4.20591 383.825 4.67369L381.007 22.4141C380.952 22.7651 381.224 23.0818 381.58 23.0818H385.756L386.805 16.4734L387.933 9.37725Z" fill="#253B80"/>
<path fill-rule="evenodd" clip-rule="evenodd" d="M202.671 0.0012207H185V27.0345H202.671V27.0293C206.532 26.9763 209.59 26.009 211.76 24.1467C214.399 21.8817 215.737 18.3056 215.737 13.5178C215.737 11.2292 215.385 9.17632 214.691 7.41631C214.027 5.73263 213.045 4.30109 211.774 3.16138C209.535 1.15416 206.392 0.0688326 202.671 0.00717137C202.671 0.00712007 202.671 0.0012207 202.671 0.0012207V0.0012207Z" fill="#0A0B09"/>
<path fill-rule="evenodd" clip-rule="evenodd" d="M202.337 1.79669C205.762 1.79669 208.616 2.73269 210.592 4.50353C212.825 6.50531 213.957 9.53815 213.957 13.5179C213.957 21.405 210.156 25.239 202.337 25.239C201.729 25.239 188.343 25.239 186.78 25.239C186.78 23.6306 186.78 3.40506 186.78 1.79669C188.343 1.79669 201.729 1.79669 202.337 1.79669Z" fill="white"/>
<path fill-rule="evenodd" clip-rule="evenodd" d="M193.714 11.093C193.714 12.6461 192.465 13.9059 190.926 13.9059C189.386 13.9059 188.138 12.6461 188.138 11.093C188.138 9.53987 189.386 8.28064 190.926 8.28064C192.465 8.28064 193.714 9.53987 193.714 11.093" fill="#0A0B09"/>
<path fill-rule="evenodd" clip-rule="evenodd" d="M188.417 23.4673H193.342V15.2176H188.417V23.4673Z" fill="#0A0B09"/>
<path fill-rule="evenodd" clip-rule="evenodd" d="M201.851 23.4766H195.603V3.98248H201.851H201.599C206.809 3.98248 212.355 6.05665 212.355 13.7552C212.355 21.8939 206.809 23.4766 201.599 23.4766H201.851" fill="#CC0066"/>
<path fill-rule="evenodd" clip-rule="evenodd" d="M195.464 9.80981V12.9102H196.167C196.429 12.9102 196.619 12.8953 196.736 12.8655C196.888 12.8272 197.015 12.7622 197.115 12.6707C197.216 12.5792 197.298 12.4286 197.362 12.2189C197.425 12.0092 197.457 11.7235 197.457 11.3616C197.457 10.9997 197.425 10.722 197.362 10.5282C197.298 10.3345 197.209 10.1834 197.095 10.0749C196.98 9.96627 196.835 9.89287 196.659 9.85449C196.528 9.82474 196.27 9.80981 195.887 9.80981H195.464ZM194.527 9.01468H196.242C196.629 9.01468 196.924 9.04453 197.127 9.10425C197.399 9.1853 197.633 9.32929 197.827 9.53623C198.022 9.74312 198.17 9.99644 198.271 10.2961C198.373 10.5958 198.423 10.9654 198.423 11.4047C198.423 11.7909 198.376 12.1236 198.281 12.403C198.164 12.7444 197.998 13.0206 197.783 13.2318C197.62 13.3918 197.4 13.5165 197.123 13.6061C196.916 13.6723 196.639 13.7053 196.293 13.7053H194.527V9.01468V9.01468Z" fill="#FFFFFE"/>
<path fill-rule="evenodd" clip-rule="evenodd" d="M196.242 9.14294C196.615 9.14294 196.9 9.17131 197.091 9.22738C197.34 9.30145 197.557 9.43508 197.735 9.62448C197.916 9.8169 198.056 10.0568 198.151 10.3376C198.247 10.6225 198.296 10.9816 198.296 11.4048C198.296 11.7748 198.251 12.0967 198.16 12.3614C198.051 12.6818 197.894 12.9437 197.694 13.1397C197.546 13.2852 197.341 13.4009 197.085 13.484C196.891 13.5457 196.625 13.5771 196.293 13.5771C196.293 13.5771 194.873 13.5771 194.654 13.5771C194.654 13.3412 194.654 9.37876 194.654 9.14294C194.872 9.14294 196.242 9.14294 196.242 9.14294ZM194.399 8.88644V13.8335H196.293C196.651 13.8335 196.943 13.7982 197.162 13.7284C197.457 13.633 197.695 13.4969 197.872 13.3236C198.101 13.0994 198.279 12.8037 198.401 12.4447C198.5 12.1531 198.551 11.8032 198.551 11.4048C198.551 10.9533 198.497 10.5664 198.391 10.2547C198.284 9.93874 198.126 9.66737 197.919 9.44796C197.71 9.22543 197.456 9.06835 197.162 8.98124C196.946 8.91743 196.645 8.88644 196.242 8.88644H194.399V8.88644Z" fill="#FFFFFE"/>
<path fill-rule="evenodd" clip-rule="evenodd" d="M195.887 9.93808C196.351 9.93808 196.548 9.9607 196.631 9.97963C196.785 10.0131 196.911 10.0764 197.008 10.1683C197.106 10.2616 197.184 10.3962 197.241 10.5685C197.3 10.7483 197.33 11.0151 197.33 11.3616C197.33 11.7091 197.3 11.9848 197.24 12.1814C197.184 12.3675 197.113 12.5001 197.03 12.5755C196.946 12.6523 196.836 12.7081 196.705 12.741C196.599 12.7682 196.418 12.7819 196.167 12.7819C196.167 12.7819 195.762 12.7819 195.591 12.7819C195.591 12.5564 195.591 10.1636 195.591 9.93808C195.716 9.93808 195.887 9.93808 195.887 9.93808ZM195.337 9.68158V13.0384H196.167C196.443 13.0384 196.639 13.0225 196.767 12.9898C196.939 12.9467 197.085 12.8713 197.201 12.766C197.32 12.6575 197.412 12.4909 197.483 12.2564C197.551 12.0325 197.584 11.7397 197.584 11.3616C197.584 10.9825 197.551 10.6967 197.482 10.4879C197.412 10.2747 197.311 10.1043 197.182 9.98147C197.051 9.85723 196.884 9.77238 196.686 9.72913C196.545 9.69717 196.283 9.68158 195.887 9.68158H195.337V9.68158Z" fill="#FFFFFE"/>
<path fill-rule="evenodd" clip-rule="evenodd" d="M199.484 13.7053V9.01468H202.927V9.80981H200.422V10.8486H202.752V11.6437H200.422V12.9102H203.016V13.7053H199.484" fill="#FFFFFE"/>
<path fill-rule="evenodd" clip-rule="evenodd" d="M202.799 9.14294C202.799 9.28863 202.799 9.53584 202.799 9.68158C202.57 9.68158 200.295 9.68158 200.295 9.68158V10.9769C200.295 10.9769 202.397 10.9769 202.625 10.9769C202.625 11.1226 202.625 11.3698 202.625 11.5155C202.397 11.5155 200.295 11.5155 200.295 11.5155V13.0384C200.295 13.0384 202.658 13.0384 202.888 13.0384C202.888 13.1842 202.888 13.4313 202.888 13.5771C202.661 13.5771 199.839 13.5771 199.611 13.5771C199.611 13.3412 199.611 9.37876 199.611 9.14294C199.838 9.14294 202.573 9.14294 202.799 9.14294ZM199.357 8.88644V13.8335H203.143V12.7819C203.143 12.7819 200.779 12.7819 200.549 12.7819C200.549 12.5981 200.549 11.9558 200.549 11.772C200.776 11.772 202.879 11.772 202.879 11.772V10.7204C202.879 10.7204 200.776 10.7204 200.549 10.7204C200.549 10.551 200.549 10.1074 200.549 9.93807C200.778 9.93807 203.054 9.93807 203.054 9.93807V8.88644H199.357V8.88644Z" fill="#FFFFFE"/>
<path fill-rule="evenodd" clip-rule="evenodd" d="M206.538 11.8457L205.897 10.108L205.269 11.8457H206.538ZM208.266 13.7053H207.245L206.839 12.6408H204.981L204.597 13.7053H203.6L205.408 9.01468H206.407L208.266 13.7053V13.7053Z" fill="#FFFFFE"/>
<path fill-rule="evenodd" clip-rule="evenodd" d="M206.321 9.14294C206.38 9.29273 207.952 13.257 208.079 13.5771C207.855 13.5771 207.449 13.5771 207.332 13.5771C207.279 13.4371 206.927 12.5126 206.927 12.5126H204.893C204.893 12.5126 204.559 13.4341 204.508 13.5771C204.39 13.5771 204.005 13.5771 203.786 13.5771C203.909 13.2591 205.436 9.29488 205.495 9.14294C205.626 9.14294 206.191 9.14294 206.321 9.14294ZM205.32 8.88644L203.415 13.8335H204.686C204.686 13.8335 205.019 12.9121 205.07 12.7691C205.224 12.7691 206.601 12.7691 206.752 12.7691C206.805 12.9091 207.158 13.8335 207.158 13.8335H208.454L206.493 8.88644H205.32V8.88644Z" fill="#FFFFFE"/>
<path fill-rule="evenodd" clip-rule="evenodd" d="M205.898 10.479C206.037 10.8568 206.273 11.4954 206.355 11.7175C206.132 11.7175 205.672 11.7175 205.45 11.7175C205.53 11.4964 205.761 10.8575 205.898 10.479ZM205.087 11.9739H206.721L205.896 9.73691L205.087 11.9739V11.9739Z" fill="#FFFFFE"/>
<path fill-rule="evenodd" clip-rule="evenodd" d="M209.051 13.7053V9.05316H209.989V12.9102H212.325V13.7053H209.051" fill="#FFFFFE"/>
<path fill-rule="evenodd" clip-rule="evenodd" d="M209.861 9.18139C209.861 9.42106 209.861 13.0384 209.861 13.0384C209.861 13.0384 211.97 13.0384 212.198 13.0384C212.198 13.1841 212.198 13.4313 212.198 13.577C211.972 13.577 209.403 13.577 209.178 13.577C209.178 13.3414 209.178 9.41706 209.178 9.18139C209.338 9.18139 209.701 9.18139 209.861 9.18139ZM208.924 8.9249V13.8335H212.452V12.7819C212.452 12.7819 210.343 12.7819 210.116 12.7819C210.116 12.5422 210.116 8.9249 210.116 8.9249H208.924V8.9249Z" fill="#FFFFFE"/>
<path fill-rule="evenodd" clip-rule="evenodd" d="M416 4H436V24H416V4Z" fill="#F59100"/>
<path fill-rule="evenodd" clip-rule="evenodd" d="M423.94 13.9741C423.94 15.0054 423.714 15.7957 422.558 15.7957C421.262 15.7957 421.124 14.866 421.124 14.1114V8.20166L419.465 8.56669V14.351C419.465 16.551 420.999 17.3931 422.482 17.3931C424.419 17.3931 425.601 16.1488 425.601 14.5885V8.20166L423.941 8.56669V13.9741H423.94ZM429.787 10.6097C429.117 10.6097 428.509 10.8129 427.992 11.1723V10.2321L426.39 10.6195V19.4565L427.988 19.0908V16.8291C428.516 17.1966 429.144 17.3937 429.787 17.3938C431.585 17.3938 433.045 15.8756 433.045 14.0028C433.045 12.1287 431.585 10.6097 429.787 10.6097V10.6097ZM429.685 15.9344C428.615 15.9344 427.835 15.0425 427.835 13.9993C427.835 12.9554 428.615 12.0628 429.685 12.0628C430.753 12.0628 431.534 12.9554 431.534 13.9993C431.534 15.0425 430.753 15.9344 429.684 15.9344" fill="white"/>
<g clip-path="url(#clip0)">
<path d="M478.768 7.16575H476.414V5.89399H482.636L482.457 7.16575H480.271V13.3141H478.768V7.16575Z" fill="#071A57"/>
<path d="M484.527 7.7753V13.3141H483.119V7.7753H484.527ZM484.527 5.89399V7.00811H483.119V5.89399H484.527" fill="#071A57"/>
<path d="M489.078 13.1775C488.731 13.3352 488.279 13.4193 487.859 13.4193C486.135 13.4193 484.969 12.2946 484.969 10.5499C484.969 8.83677 486.135 7.70174 487.859 7.70174C488.479 7.70174 488.973 7.82786 489.467 8.06958L489.036 9.15206C488.784 8.99442 488.426 8.8683 488.048 8.8683C487.092 8.8683 486.44 9.50949 486.44 10.5499C486.44 11.5484 487.06 12.2737 488.143 12.2526C488.574 12.2526 488.931 12.1265 489.194 11.99L489.078 13.1775Z" fill="#071A57"/>
<path d="M491.348 5.89399V10.0351H491.537L493.229 7.7753H494.774L492.893 10.1085H493.029C493.744 10.1085 493.944 10.4554 494.154 11.0755L494.448 12.0425C494.574 12.4208 494.806 12.9989 495.005 13.3141H493.481C493.408 13.146 493.261 12.8097 493.145 12.4523L492.882 11.6115C492.746 11.1701 492.599 10.9809 492.168 10.9809H491.348V13.3141H489.95V5.89399H491.348" fill="#071A57"/>
<path d="M496.235 9.91936H499.052C498.946 9.16268 498.431 8.72117 497.685 8.72117C496.907 8.72117 496.392 9.21522 496.235 9.91936V9.91936ZM499.283 13.1565C498.873 13.3352 498.347 13.4193 497.811 13.4193C496.004 13.4193 494.732 12.3051 494.732 10.508C494.732 8.88932 495.909 7.70174 497.654 7.70174C499.577 7.70174 500.576 8.9734 500.544 10.8863H496.256C496.382 11.9163 497.265 12.3472 498.116 12.3472C498.579 12.3472 498.988 12.2421 499.377 12.0425L499.283 13.1565Z" fill="#071A57"/>
<path d="M500.869 6.48252L502.267 5.92552V7.7753H503.392L503.192 8.85779H502.267V10.466C502.267 11.8007 502.898 12.7256 503.329 13.3141H501.805C501.531 12.8622 500.859 11.9688 500.869 10.4239V6.48252Z" fill="#071A57"/>
<path d="M454.503 17.2983C454.503 17.7083 454.745 17.971 455.354 17.971H456.594C457.425 17.971 457.793 17.477 457.793 16.8254C457.793 15.953 457.33 15.6588 456.573 15.6588H454.503V17.2983ZM457.067 14.429C458.686 14.429 459.411 15.5747 459.411 16.6677C459.411 17.8554 458.57 18.7594 457.572 18.8013C458.655 19.0747 458.791 19.8944 459.159 20.7773C459.317 21.1346 459.569 21.6181 459.758 21.8493H458.003C457.866 21.7232 457.667 21.3763 457.53 20.9979C457.152 19.9785 457.004 19.1693 455.901 19.1693L455.354 19.1586C454.682 19.1586 454.629 18.8749 454.503 18.6331V21.8493H453V14.429H457.067Z" fill="#071A57"/>
<path d="M461.208 18.4545H464.025C463.92 17.6978 463.405 17.2564 462.658 17.2564C461.881 17.2564 461.366 17.7503 461.208 18.4545ZM464.256 21.6916C463.846 21.8703 463.32 21.9544 462.784 21.9544C460.977 21.9544 459.705 20.8403 459.705 19.0431C459.705 17.4244 460.882 16.2368 462.627 16.2368C464.55 16.2368 465.549 17.5085 465.517 19.4214H461.229C461.355 20.4514 462.238 20.8824 463.089 20.8824C463.552 20.8824 463.962 20.7773 464.35 20.5775L464.256 21.6916Z" fill="#071A57"/>
<path d="M466.074 20.4304C466.578 20.7142 467.114 20.8928 467.671 20.8928C468.092 20.8928 468.438 20.7563 468.438 20.3253C468.438 19.926 468.008 19.7473 467.461 19.4951L467.104 19.3269C466.378 19.001 465.695 18.6332 465.695 17.7609C465.695 16.6677 466.673 16.2368 467.797 16.2368C468.449 16.2368 469.143 16.3735 469.784 16.6677L469.342 17.7503C468.89 17.4456 468.333 17.2879 467.892 17.2879C467.493 17.2879 467.135 17.3825 467.135 17.7397C467.135 18.0551 467.598 18.2128 468.081 18.4335L468.438 18.6017C469.216 18.9591 469.899 19.3795 469.899 20.3148C469.899 21.4709 468.859 21.9544 467.692 21.9544C467.03 21.9544 466.315 21.8388 465.664 21.534L466.074 20.4304" fill="#071A57"/>
<path d="M470.235 15.0177L471.633 14.4606V16.3104H472.758L472.558 17.393H471.633V19.001C471.633 20.3359 472.264 21.2607 472.695 21.8493H471.171C470.897 21.3974 470.225 20.504 470.235 18.9591V15.0177Z" fill="#071A57"/>
<path d="M475.742 17.4456C474.765 17.4456 474.124 18.1812 474.124 19.0957C474.124 20.0521 474.744 20.7458 475.742 20.7458C476.72 20.7458 477.372 20.0732 477.372 19.0957C477.372 18.1182 476.72 17.4456 475.742 17.4456V17.4456ZM478.853 21.8493H477.487V21.0716C477.025 21.6181 476.299 21.9335 475.501 21.9335C473.903 21.9335 472.673 20.8403 472.673 19.1272C472.673 17.4456 473.924 16.2368 475.753 16.2368C477.666 16.2368 478.853 17.414 478.853 19.2112V21.8493" fill="#071A57"/>
<path d="M483.236 16.3104H484.623V19.6842C484.623 21.2292 483.541 21.9544 482.038 21.9544C480.535 21.9544 479.452 21.2292 479.452 19.6842V16.3104H480.839V19.39C480.839 20.2308 481.207 20.7458 482.038 20.7458C482.868 20.7458 483.236 20.2308 483.236 19.39V16.3104" fill="#071A57"/>
<path d="M488.301 17.5821C488.217 17.5402 487.944 17.4559 487.671 17.4559C486.861 17.4559 486.651 17.971 486.651 18.8013V21.8493H485.264V18.507C485.264 16.8254 486.283 16.2368 487.639 16.2368C488.007 16.2368 488.448 16.3524 488.585 16.3735L488.301 17.5821" fill="#071A57"/>
<path d="M491.37 17.4456C490.393 17.4456 489.751 18.1812 489.751 19.0957C489.751 20.0521 490.372 20.7458 491.37 20.7458C492.348 20.7458 492.999 20.0732 492.999 19.0957C492.999 18.1182 492.348 17.4456 491.37 17.4456V17.4456ZM494.481 21.8493H493.115V21.0716C492.652 21.6181 491.927 21.9335 491.128 21.9335C489.531 21.9335 488.301 20.8403 488.301 19.1272C488.301 17.4456 489.552 16.2368 491.381 16.2368C493.293 16.2368 494.481 17.414 494.481 19.2112V21.8493" fill="#071A57"/>
<path d="M498.863 18.8013C498.863 17.9605 498.495 17.4456 497.665 17.4456C496.835 17.4456 496.467 17.9605 496.467 18.8013V21.8493H495.08V18.507C495.08 16.962 496.162 16.2474 497.665 16.2474C499.168 16.2474 500.251 16.962 500.251 18.507V21.8493H498.863V18.8013" fill="#071A57"/>
<path d="M500.871 15.0177L502.268 14.4606V16.3104H503.393L503.193 17.393H502.268V19.001C502.268 20.3359 502.899 21.2607 503.33 21.8493H501.806C501.533 21.3974 500.86 20.504 500.871 18.9591V15.0177Z" fill="#071A57"/>
<path d="M521.251 12.2436C520.542 12.2436 520.092 12.705 519.952 13.3168H522.474C522.389 12.6407 521.916 12.2436 521.251 12.2436" fill="#D62525"/>
<path d="M514.51 12.5118C513.609 12.5118 513.04 13.1344 513.04 14.0039C513.04 14.8625 513.62 15.5063 514.51 15.5063C515.401 15.5063 516.002 14.8947 516.002 14.0039C516.002 13.1129 515.401 12.5118 514.51 12.5118Z" fill="#D62525"/>
<path d="M521.798 15.689C522.281 15.689 522.729 15.5495 523.147 15.3563L523.011 16.6549C522.539 16.8482 521.97 16.9233 521.401 16.9233C519.512 16.9233 518.181 15.8177 518.181 13.9394C518.181 12.3079 519.372 11.0842 521.197 11.0842C523.258 11.0842 524.288 12.3937 524.245 14.4117H519.995C520.156 15.3348 521.036 15.689 521.798 15.689ZM517.655 13.6711C517.655 15.7211 516.443 16.9233 514.435 16.9233C512.578 16.9233 511.323 15.6782 511.323 14.0039C511.323 12.2543 512.514 11.0842 514.296 11.0842C515.112 11.0842 515.713 11.4063 516.013 11.7283V9.23813H517.655V13.6711ZM532.713 11.0842C531.359 11.0842 530.304 11.6253 530.132 13.029C530.119 13.0298 530.14 13.0285 530.128 13.0292C529.702 6.66634 524.682 1.63595 518.212 1.63595C513.099 1.63595 508.722 4.77936 506.902 9.23813H511.237L511.012 10.6979H507.609V12.2435H510.69L510.453 13.6495H507.609V14.5512C507.609 15.0986 507.845 15.3563 508.296 15.3563H511.205L510.969 16.8159H507.749C507.592 16.8159 507.442 16.8017 507.301 16.7759V16.7769C507.301 16.7769 506.743 16.7162 506.398 16.2674C506.389 16.257 506.249 16.09 506.18 15.815C506.162 15.7431 506.16 15.7383 506.146 15.6827C506.169 15.8646 506.208 16.1082 506.225 16.1989C506.323 16.708 506.447 17.1393 506.458 17.1697C507.905 22.3015 512.618 26.0643 518.212 26.0643C523.935 26.0643 528.769 22.1282 530.095 16.8159H528.453V13.8321C528.453 13.027 528.142 12.5118 527.347 12.5118C526.553 12.5118 526.242 13.027 526.242 13.8321V16.8159H524.6V13.4241C524.6 11.8034 525.78 11.0842 527.347 11.0842C528.914 11.0842 530.095 11.8034 530.095 13.4241L530.095 16.8159H531.747V13.8321C531.747 13.027 531.961 12.5118 532.745 12.5118C532.992 12.5118 533.292 12.5869 533.4 12.6407L533.711 11.2024C533.529 11.1808 533.067 11.0842 532.713 11.0842" fill="#D42B1E"/>
<path d="M535.192 13.3168C535.332 12.705 535.782 12.2436 536.491 12.2436C537.156 12.2436 537.629 12.6407 537.714 13.3168H535.192ZM536.437 11.0842C534.612 11.0842 533.421 12.3079 533.421 13.9394C533.421 15.8177 534.752 16.9233 536.641 16.9233C537.21 16.9233 537.779 16.8482 538.251 16.6549L538.387 15.3563C537.969 15.5494 537.521 15.689 537.038 15.689C536.276 15.689 535.396 15.3347 535.235 14.4116H539.485C539.528 12.3937 538.498 11.0842 536.437 11.0842" fill="#D42B1E"/>
<path d="M542.855 15.5063C541.964 15.5063 541.385 14.8625 541.385 14.0038C541.385 13.1345 541.954 12.5118 542.855 12.5118C543.746 12.5118 544.347 13.1129 544.347 14.0038C544.347 14.8946 543.746 15.5063 542.855 15.5063V15.5063ZM544.358 9.23814V11.7283C544.058 11.4063 543.456 11.0842 542.641 11.0842C540.859 11.0842 539.668 12.2543 539.668 14.0038C539.668 15.6782 540.923 16.9233 542.78 16.9233C544.788 16.9233 546 15.7211 546 13.6711V9.23814H544.358Z" fill="#D42B1E"/>
</g>
<defs>
<linearGradient id="paint0_linear" x1="57.098" y1="16.8751" x2="72.6571" y2="39.1359" gradientUnits="userSpaceOnUse">
<stop stop-color="#222357"/>
<stop offset="1" stop-color="#254AA5"/>
</linearGradient>
<clipPath id="clip0">
<rect width="93" height="24.4284" fill="white" transform="translate(453 1.63596)"/>
</clipPath>
</defs>
</svg>
